<svg width="106" height="110" viewBox="0 0 106 110" fill="none" xmlns="http://www.w3.org/2000/svg">
<circle cx="99.3064" cy="54.392" r="2.58333" fill="#D9D9D9"/>
<circle cx="7.59932" cy="54.392" r="2.58333" fill="#D9D9D9"/>
<path d="M98.6255 74.8403C99.6427 75.3607 99.912 76.5334 99.2868 77.7556C98.7077 78.8876 97.7026 79.2945 96.6437 78.8355L97.0591 78.0235C97.6707 78.2846 98.2292 78.0425 98.5691 77.3781C98.951 76.6317 98.8213 75.9547 98.2389 75.6567C97.7631 75.4134 97.3376 75.5372 96.921 76.0278L96.1919 76.8864C95.4753 77.741 94.6985 77.9646 93.8619 77.5366C92.7955 76.991 92.5385 75.8143 93.1848 74.5511C93.8017 73.3453 94.8445 72.8646 95.8868 73.3357L95.4672 74.156C94.8928 73.8828 94.2885 74.1739 93.9066 74.9204C93.5038 75.7078 93.6169 76.397 94.2075 76.6991C94.675 76.9383 95.1004 76.8351 95.5212 76.3363L96.2421 75.4735C96.9587 74.6189 97.7725 74.4039 98.6255 74.8403Z" fill="#CCCCCC"/>
<path d="M87.1192 83.7647C88.3548 82.3239 90.2116 82.2535 91.7783 83.597C93.3379 84.9346 93.5483 86.8265 92.3067 88.2742C91.329 89.4142 89.9008 89.7067 88.7038 89.0078L89.3336 88.2734C90.153 88.6484 91.0375 88.4238 91.6673 87.6894C92.543 86.6683 92.3495 85.3371 91.1675 84.3234C89.9855 83.3097 88.6403 83.3214 87.7646 84.3425C87.1288 85.0839 87.0236 86.0132 87.4842 86.7359L86.8604 87.4633C86.0392 86.3827 86.1415 84.9047 87.1192 83.7647Z" fill="#CCCCCC"/>
<path d="M80.6396 90.1273L81.3714 89.5984L85.2738 94.9971L83.2353 96.4707C82.0779 97.3073 80.9483 97.1916 80.2196 96.1835C79.6799 95.4368 79.6646 94.6293 80.1801 93.9269L77.4362 92.4429L78.2501 91.8546L80.8019 93.2615L82.1833 92.2629L80.6396 90.1273ZM84.0671 94.869L82.6529 92.9126L81.3387 93.8626C80.6591 94.3537 80.5353 95.0003 80.9833 95.6201C81.4367 96.2473 82.0882 96.2994 82.7603 95.8136L84.0671 94.869Z" fill="#CCCCCC"/>
<path d="M68.5118 100.424C67.7578 98.5426 68.4615 96.732 70.2148 96.0294C71.9595 95.3303 73.7018 96.1607 74.4558 98.0423C75.2064 99.9153 74.5146 101.731 72.7699 102.43C71.0166 103.133 69.2658 102.306 68.5118 100.424ZM69.3927 100.071C69.9684 101.508 71.187 102.121 72.4443 101.618C73.7015 101.114 74.1507 99.8321 73.5749 98.3953C72.9991 96.9584 71.7856 96.333 70.5284 96.8368C69.2712 97.3406 68.8203 98.6429 69.3927 100.071Z" fill="#CCCCCC"/>
<path d="M61.7441 105.474L60.902 99.712L58.0028 100.136L57.8815 99.3061L61.6742 98.7518L62.6375 105.343L61.7441 105.474Z" fill="#CCCCCC"/>
<path d="M50.9998 106.148L51.3761 100.337L48.4522 100.148L48.5064 99.3111L52.3313 99.5588L51.9008 106.206L50.9998 106.148Z" fill="#CCCCCC"/>
<path d="M34.3367 95.3673L36.3203 96.3238L33.427 102.324L31.4767 101.384C29.684 100.519 29.0566 98.7234 29.9209 96.9308C30.7813 95.1464 32.5607 94.511 34.3367 95.3673ZM31.8949 100.665L32.9738 101.185L35.1428 96.6868L34.0307 96.1506C32.6945 95.5063 31.4318 95.9613 30.7675 97.339C30.0952 98.7333 30.5255 100.005 31.8949 100.665Z" fill="#CCCCCC"/>
<path d="M20.0134 89.6941C21.3236 88.1474 23.2531 87.9223 24.6943 89.1431C26.1286 90.358 26.2098 92.2863 24.8996 93.833C23.5954 95.3727 21.667 95.6108 20.2328 94.396C18.7915 93.1751 18.7033 91.2408 20.0134 89.6941ZM20.7376 90.3075C19.7371 91.4886 19.765 92.8526 20.7985 93.7281C21.832 94.6035 23.175 94.4007 24.1755 93.2196C25.176 92.0385 25.161 90.6734 24.1275 89.798C23.094 88.9226 21.7321 89.1334 20.7376 90.3075Z" fill="#CCCCCC"/>
<path d="M17.4743 81.8824L13.032 87.2271L12.5104 86.4453L15.2233 83.1735C15.4635 82.9026 15.7036 82.6316 16.074 82.2738C15.5681 82.4783 15.2436 82.573 14.8961 82.683L10.8078 83.8929L10.2658 83.0804L12.9582 79.778C13.1958 79.4866 13.4359 79.2157 13.7936 78.8553C13.2647 79.0752 12.93 79.1877 12.6335 79.2747L8.558 80.5204L8.04669 79.7539L14.703 77.728L15.1836 78.4485L11.6942 82.7146L16.9834 81.1465L17.4743 81.8824Z" fill="#CCCCCC"/>
<path d="M11.2836 70.6061L11.5653 71.464L5.23635 73.5425L4.95461 72.6846L8.78427 67.8387L3.89092 69.4457L3.60919 68.5879L9.93815 66.5093L10.2199 67.3672L6.39023 72.2131L11.2836 70.6061Z" fill="#CCCCCC"/>
<path d="M6.22889 38.5267C5.17249 38.0915 4.80778 36.9448 5.33064 35.6755C5.81491 34.4998 6.78321 34.0118 7.87619 34.3823L7.52879 35.2257C6.89785 35.0156 6.36108 35.3027 6.07683 35.9928C5.7575 36.768 5.94235 37.4321 6.54722 37.6813C7.04134 37.8848 7.45532 37.7265 7.83025 37.2033L8.48638 36.2878C9.13048 35.3772 9.88627 35.0906 10.7552 35.4486C11.8627 35.9048 12.2154 37.0565 11.675 38.3685C11.1592 39.6208 10.1593 40.1855 9.08184 39.8015L9.43276 38.9495C10.0276 39.1746 10.606 38.8349 10.9253 38.0597C11.2622 37.2418 11.0929 36.5642 10.4795 36.3115C9.99389 36.1115 9.57842 36.2493 9.19998 36.781L8.55237 37.7C7.90827 38.6106 7.11489 38.8916 6.22889 38.5267Z" fill="#CCCCCC"/>
<path d="M16.964 28.688C15.8508 30.2253 14.006 30.4479 12.3344 29.2374C10.6702 28.0324 10.3053 26.1641 11.4239 24.6194C12.3048 23.403 13.7042 22.9943 14.9545 23.5926L14.3871 24.3762C13.5397 24.0697 12.6766 24.3662 12.1092 25.1497C11.3202 26.2393 11.6224 27.5501 12.8835 28.4634C14.1447 29.3767 15.4844 29.2547 16.2734 28.1651C16.8462 27.3741 16.8747 26.4392 16.3565 25.7568L16.9185 24.9807C17.8256 25.9902 17.8449 27.4716 16.964 28.688Z" fill="#CCCCCC"/>
<path d="M22.8988 21.8151L22.2129 22.4024L17.8806 17.342L19.7913 15.7062C20.8762 14.7774 22.0114 14.8 22.8204 15.7449C23.4196 16.4448 23.5011 17.2484 23.0449 17.9906L25.9014 19.2445L25.1385 19.8976L22.4799 18.7048L21.185 19.8134L22.8988 21.8151ZM19.0938 17.3707L20.6637 19.2045L21.8955 18.1499C22.5325 17.6046 22.6028 16.95 22.1055 16.3691C21.6021 15.7812 20.9485 15.7828 20.3186 16.3221L19.0938 17.3707Z" fill="#CCCCCC"/>
<path d="M34.1419 10.5577C35.0477 12.371 34.4949 14.2333 32.8052 15.0774C31.1237 15.9174 29.3192 15.2327 28.4133 13.4194C27.5116 11.6143 28.0521 9.74788 29.7335 8.9079C31.4233 8.06381 33.236 8.74435 34.1419 10.5577ZM33.2929 10.9818C32.6012 9.59706 31.3364 9.08566 30.1247 9.69094C28.9131 10.2962 28.5706 11.6105 29.2623 12.9953C29.9541 14.38 31.2148 14.9038 32.4264 14.2985C33.6381 13.6932 33.9805 12.3583 33.2929 10.9818Z" fill="#CCCCCC"/>
<path d="M40.4674 4.96975L41.7795 10.6431L44.6341 9.9829L44.823 10.7998L41.0887 11.6634L39.5877 5.1732L40.4674 4.96975Z" fill="#CCCCCC"/>
<path d="M51.1211 3.41631L51.2229 9.2385L54.1524 9.18728L54.1671 10.0256L50.3348 10.0926L50.2183 3.4321L51.1211 3.41631Z" fill="#CCCCCC"/>
<path d="M68.6096 12.7933L66.5542 12.0029L68.9453 5.78528L70.9663 6.56247C72.8238 7.27682 73.5965 9.01523 72.8822 10.8728C72.1711 12.7217 70.4499 13.501 68.6096 12.7933ZM70.6084 7.31329L69.4905 6.88336L67.698 11.5444L68.8503 11.9876C70.2349 12.52 71.456 11.963 72.005 10.5354C72.5606 9.09068 72.0274 7.85898 70.6084 7.31329Z" fill="#CCCCCC"/>
<path d="M83.3561 17.2718C82.1773 18.9208 80.2728 19.3035 78.7362 18.2051C77.2071 17.112 76.9679 15.1968 78.1467 13.5478C79.3202 11.9063 81.2226 11.5107 82.7516 12.6038C84.2882 13.7022 84.5349 15.6228 83.3561 17.2718ZM82.5841 16.7199C83.4842 15.4606 83.3444 14.1035 82.2426 13.3159C81.1408 12.5282 79.8189 12.8405 78.9188 14.0997C78.0186 15.359 78.1455 16.7182 79.2474 17.5059C80.3492 18.2935 81.6892 17.9716 82.5841 16.7199Z" fill="#CCCCCC"/>
<path d="M86.5256 24.8488L90.5143 19.1576L91.0983 19.894L88.663 23.3773C88.4459 23.667 88.2288 23.9568 87.889 24.3438C88.3764 24.0984 88.6921 23.9775 89.0294 23.8393L93.0046 22.298L93.6115 23.0633L91.1991 26.5755C90.9862 26.8854 90.7691 27.1751 90.4423 27.5637C90.9514 27.3011 91.2757 27.1614 91.564 27.0504L95.5236 25.4745L96.096 26.1965L89.6284 28.7617L89.0903 28.0831L92.2179 23.5451L87.0752 25.5418L86.5256 24.8488Z" fill="#CCCCCC"/>
<path d="M93.6196 35.5791L93.2684 34.7472L99.4054 32.1563L99.7566 32.9882L96.3375 38.132L101.083 36.1289L101.434 36.9607L95.2966 39.5516L94.9455 38.7197L98.3645 33.5759L93.6196 35.5791Z" fill="#CCCCCC"/>
</svg>
